<?xml version="1.0" standalone="no"?>
<!DOCTYPE svg PUBLIC "-//W3C//DTD SVG 20010904//EN"
 "http://www.w3.org/TR/2001/REC-SVG-20010904/DTD/svg10.dtd">
<svg version="1.0" xmlns="http://www.w3.org/2000/svg"
 width="512.000000pt" height="512.000000pt" viewBox="0 0 512.000000 512.000000"
 preserveAspectRatio="xMidYMid meet">
<metadata>
Created by potrace 1.14, written by Peter Selinger 2001-2017
</metadata>
<g transform="translate(0.000000,512.000000) scale(0.100000,-0.100000)"
fill="#000000" stroke="none">
<path d="M0 2560 l0 -2560 2560 0 2560 0 0 2560 0 2560 -2560 0 -2560 0 0
-2560z m1456 1869 c94 -17 200 -73 270 -143 174 -175 200 -435 64 -646 -98
-152 -310 -249 -486 -222 -149 23 -267 92 -348 202 -188 255 -107 610 174 759
100 54 212 71 326 50z m2467 -22 c180 -65 294 -200 334 -392 27 -134 -7 -278
-93 -395 -101 -137 -293 -224 -454 -205 -186 21 -335 125 -415 289 -199 405
205 856 628 703z m-931 -1710 c65 -32 131 -100 161 -167 13 -29 22 -74 25
-125 6 -128 -10 -160 -193 -374 -104 -121 -155 -189 -155 -204 0 -42 31 -130
78 -222 85 -166 251 -307 437 -372 74 -25 92 -27 235 -28 177 0 230 12 375 88
94 50 231 179 284 269 68 117 110 257 111 369 0 199 154 327 331 276 69 -21
121 -64 153 -129 23 -45 26 -65 26 -149 0 -447 -276 -891 -686 -1101 -199
-102 -365 -142 -594 -141 -108 0 -179 5 -235 17 -308 66 -566 221 -758 454
l-27 34 -27 -34 c-52 -65 -183 -187 -255 -238 -86 -61 -213 -127 -316 -164
-264 -95 -589 -95 -854 0 -498 178 -848 663 -848 1173 0 84 3 104 26 149 32
64 83 108 148 127 67 20 105 19 170 -5 60 -23 118 -79 143 -139 9 -20 19 -83
24 -141 16 -204 84 -355 219 -491 136 -138 273 -205 464 -229 153 -19 320 16
464 96 87 49 212 170 269 261 48 77 103 218 103 266 0 21 -36 69 -155 208
-174 204 -195 242 -195 359 0 120 49 214 147 282 82 56 94 57 488 55 l360 -2
57 -28z"/>
</g>
</svg>
